<?xml version="1.0" encoding="UTF-8" standalone="no"?>
<!DOCTYPE svg PUBLIC "-//W3C//DTD SVG 1.1//EN" "http://www.w3.org/Graphics/SVG/1.1/DTD/svg11.dtd">
<svg width="100%" height="100%" viewBox="0 0 4096 4096" version="1.1" xmlns="http://www.w3.org/2000/svg" xmlns:xlink="http://www.w3.org/1999/xlink" xml:space="preserve" xmlns:serif="http://www.serif.com/" style="fill-rule:evenodd;clip-rule:evenodd;stroke-linejoin:round;stroke-miterlimit:2;">
    <path d="M3584,0C3866.77,0 4096,229.23 4096,512L4096,3518.12C4096,3837.27 3837.27,4096 3518.12,4096L577.881,4096C258.726,4096 0,3837.27 -0,3518.12C0,2715.94 0,1277.5 0,512C0,229.23 229.23,0 512,0L3584,0Z" style="fill:url(#_Linear1);"/>
    <g transform="matrix(0.969294,0,0,0.969294,62.8853,135.107)">
        <path d="M2879.81,1630.7C2915.13,1630.7 2949,1644.74 2973.98,1669.71C2998.95,1694.68 3012.98,1728.55 3012.98,1763.87L3012.98,3387.89C3012.98,3423.21 2998.95,3457.08 2973.98,3482.05C2949,3507.03 2915.13,3521.06 2879.81,3521.06L1216.19,3521.06C1180.87,3521.06 1147,3507.03 1122.02,3482.05C1097.05,3457.08 1083.02,3423.21 1083.02,3387.89L1083.02,1763.87C1083.02,1728.55 1097.05,1694.68 1122.02,1669.71C1147,1644.74 1180.87,1630.7 1216.19,1630.7L2879.81,1630.7ZM1910.35,2586.07L1910.35,2890.35C1910.35,2966.37 1971.98,3028 2048,3028L2048,3028C2124.02,3028 2185.65,2966.37 2185.65,2890.35L2185.65,2586.07C2254.28,2541.11 2299.65,2463.52 2299.65,2375.41C2299.65,2236.52 2186.89,2123.76 2048,2123.76C1909.11,2123.76 1796.35,2236.52 1796.35,2375.41C1796.35,2463.52 1841.72,2541.11 1910.35,2586.07Z" style="fill:white;"/>
        <g transform="matrix(1.49619,0,0,1,-1172.04,-467.363)">
            <path d="M1862.51,2247.09L1666.73,2247.09L1666.73,1619.59C1666.73,1218.46 1884.07,893.289 2152.17,893.289C2420.27,893.289 2637.6,1218.46 2637.6,1619.59L2637.6,2247.09L2441.83,2247.09L2441.83,1624.93C2441.83,1509.99 2411.31,1399.76 2356.99,1318.48C2302.67,1237.2 2228.99,1191.54 2152.17,1191.54C2075.35,1191.54 2001.67,1237.2 1947.35,1318.48C1893.02,1399.76 1862.51,1509.99 1862.51,1624.93L1862.51,2247.09Z" style="fill:white;"/>
        </g>
    </g>
    <defs>
        <linearGradient id="_Linear1" x1="0" y1="0" x2="1" y2="0" gradientUnits="userSpaceOnUse" gradientTransform="matrix(2.32604e-13,3798.7,-3798.7,2.32604e-13,2016.31,145.476)"><stop offset="0" style="stop-color:rgb(72,121,234);stop-opacity:1"/><stop offset="1" style="stop-color:rgb(23,78,207);stop-opacity:1"/></linearGradient>
    </defs>
</svg>
